<svg xmlns="http://www.w3.org/2000/svg" fill="none" width="24" height="24"><rect id="backgroundrect" width="100%" height="100%" x="0" y="0" fill="none" stroke="none"/>  <g class="currentLayer" style=""><title>Layer 1</title><path d="M8 6h8v2H8V6zm-4 4V8h4v2H4zm-2 2v-2h2v2H2zm0 2v-2H0v2h2zm2 2H2v-2h2v2zm4 2H4v-2h4v2zm8 0v2H8v-2h8zm4-2v2h-4v-2h4zm2-2v2h-2v-2h2zm0-2h2v2h-2v-2zm-2-2h2v2h-2v-2zm0 0V8h-4v2h4zm-10 1h4v4h-4v-4z" fill="currentColor" id="svg_1"/><path fill="none" fill-opacity="1" stroke="#222222" stroke-opacity="1" stroke-width="2" stroke-dasharray="none" stroke-linejoin="round" stroke-linecap="butt" stroke-dashoffset="" fill-rule="nonzero" opacity="1" marker-start="" marker-mid="" marker-end="" d="M21.142856066324278,18.489795355164286 L21.142856066324278,22.89795855478366 " id="svg_2" class=""/><path fill="none" fill-opacity="1" stroke="#222222" stroke-opacity="1" stroke-width="2" stroke-dasharray="none" stroke-linejoin="round" stroke-linecap="butt" stroke-dashoffset="" fill-rule="nonzero" opacity="1" marker-start="" marker-mid="" marker-end="" d="M18.2040809005538,21.265305537958543 L23.755101362239603,21.265305537958543 " id="svg_3" class=""/><path fill="none" fill-opacity="1" stroke="#222222" stroke-opacity="1" stroke-width="2" stroke-dasharray="none" stroke-linejoin="round" stroke-linecap="butt" stroke-dashoffset="" fill-rule="nonzero" opacity="1" marker-start="" marker-mid="" marker-end="" d="M21.14285610357718,22.653060617495566 L21.14285610357718,23.95918304701242 " id="svg_6" class=""/></g></svg>
